# xmcd CD database file
#
# Track frame offsets:
#	150
#	31920
#	48592
#	67377
#	81547
#	109152
#	123102
#	137370
#	151772
#
# Disc length: 2248 seconds
#
# Revision: 0
# Processed by: cddbd v1.5.2PL0 Copyright (c) Steve Scherf et al.
# Submitted via: CDex 1.50beta8
#
DISCID=7608c609
DTITLE=Cal Tjader - LAST BOLERO IN BERKELEY
DYEAR=1973
DGENRE=Jazz
TTITLE0=Gary's Theme
TTITLE1=Don't Let Me Be Lonely Tonight
TTITLE2=Charisma (She's Got)
TTITLE3=Never Can Say Goodbye
TTITLE4=Bolero
TTITLE5=Cloudburst
TTITLE6=Curtain Call
TTITLE7=Where Is The Love
TTITLE8=I Want You Back
EXTD=YEAR: 1973
EXTT0=
EXTT1=
EXTT2=
EXTT3=
EXTT4=
EXTT5=
EXTT6=
EXTT7=
EXTT8=
PLAYORDER=
